<svg xmlns="http://www.w3.org/2000/svg" viewBox="0 0 100 100" width="100" height="100">
  <defs>
    <linearGradient id="grad1" x1="0%" y1="0%" x2="100%" y2="100%">
      <stop offset="0%" style="stop-color:#0ea5e9;stop-opacity:1" />
      <stop offset="50%" style="stop-color:#3b82f6;stop-opacity:1" />
      <stop offset="100%" style="stop-color:#6366f1;stop-opacity:1" />
    </linearGradient>
    <linearGradient id="grad2" x1="0%" y1="0%" x2="100%" y2="100%">
      <stop offset="0%" style="stop-color:#f59e0b;stop-opacity:1" />
      <stop offset="100%" style="stop-color:#ef4444;stop-opacity:1" />
    </linearGradient>
  </defs>
  
  <!-- Background Circle -->
  <circle cx="50" cy="50" r="48" fill="url(#grad1)" stroke="#ffffff" stroke-width="2"/>
  
  <!-- Circuit Board Pattern -->
  <g stroke="#ffffff" stroke-width="1.5" fill="none" opacity="0.3">
    <path d="M20 30 L35 30 L35 45 L50 45"/>
    <path d="M50 25 L65 25 L65 40 L80 40"/>
    <path d="M25 55 L40 55 L40 70 L55 70"/>
    <path d="M60 60 L75 60 L75 75"/>
    <circle cx="35" cy="30" r="2" fill="#ffffff"/>
    <circle cx="50" cy="45" r="2" fill="#ffffff"/>
    <circle cx="65" cy="25" r="2" fill="#ffffff"/>
    <circle cx="40" cy="55" r="2" fill="#ffffff"/>
  </g>
  
  <!-- Main Logo - Stylized "EEE" -->
  <g fill="#ffffff" font-family="Arial, sans-serif" font-weight="bold">
    <!-- First E -->
    <rect x="25" y="35" width="12" height="3" rx="1"/>
    <rect x="25" y="35" width="3" height="15" rx="1"/>
    <rect x="25" y="47" width="10" height="3" rx="1"/>
    <rect x="25" y="59" width="12" height="3" rx="1"/>
    
    <!-- Second E -->
    <rect x="42" y="35" width="12" height="3" rx="1"/>
    <rect x="42" y="35" width="3" height="15" rx="1"/>
    <rect x="42" y="47" width="10" height="3" rx="1"/>
    <rect x="42" y="59" width="12" height="3" rx="1"/>
    
    <!-- Third E -->
    <rect x="59" y="35" width="12" height="3" rx="1"/>
    <rect x="59" y="35" width="3" height="15" rx="1"/>
    <rect x="59" y="47" width="10" height="3" rx="1"/>
    <rect x="59" y="59" width="12" height="3" rx="1"/>
  </g>
  
  <!-- Tech Symbol - Gear -->
  <g fill="url(#grad2)" transform="translate(75, 25) scale(0.8)">
    <path d="M12 2C13.1 2 14 2.9 14 4V6.28L15.68 7.05L16.72 5.72C17.51 4.93 18.77 4.93 19.56 5.72C20.35 6.51 20.35 7.77 19.56 8.56L18.23 9.6L19 11.28H21C22.1 11.28 23 12.18 23 13.28C23 14.38 22.1 15.28 21 15.28H18.72L17.95 16.96L19.28 18.03C20.07 18.82 20.07 20.08 19.28 20.87C18.49 21.66 17.23 21.66 16.44 20.87L15.4 19.54L13.72 20.31V22.59C13.72 23.69 12.82 24.59 11.72 24.59C10.62 24.59 9.72 23.69 9.72 22.59V20.31L8.04 19.54L7 20.87C6.21 21.66 4.95 21.66 4.16 20.87C3.37 20.08 3.37 18.82 4.16 18.03L5.49 16.96L4.72 15.28H2.44C1.34 15.28 0.44 14.38 0.44 13.28C0.44 12.18 1.34 11.28 2.44 11.28H4.72L5.49 9.6L4.16 8.56C3.37 7.77 3.37 6.51 4.16 5.72C4.95 4.93 6.21 4.93 7 5.72L8.04 7.05L9.72 6.28V4C9.72 2.9 10.62 2 11.72 2H12Z"/>
    <circle cx="11.72" cy="13.3" r="3.5" fill="#ffffff"/>
  </g>
  
  <!-- Small "TECH" text -->
  <text x="50" y="80" text-anchor="middle" fill="#ffffff" font-family="Arial, sans-serif" font-size="8" font-weight="bold" opacity="0.9">TECH</text>
</svg>